<svg width="54" height="48" viewBox="0 0 54 48" fill="none" xmlns="http://www.w3.org/2000/svg">
<g id="Insert link" clip-path="url(#clip0_8_15229)">
<path id="Vector" d="M14.85 24.5C14.85 21.935 16.935 19.85 19.5 19.85H25.5V17H19.5C15.36 17 12 20.36 12 24.5C12 28.64 15.36 32 19.5 32H25.5V29.15H19.5C16.935 29.15 14.85 27.065 14.85 24.5ZM21 26H33V23H21V26ZM34.5 17H28.5V19.85H34.5C37.065 19.85 39.15 21.935 39.15 24.5C39.15 27.065 37.065 29.15 34.5 29.15H28.5V32H34.5C38.64 32 42 28.64 42 24.5C42 20.36 38.64 17 34.5 17Z" fill="#12B76A"/>
</g>
<defs>
<clipPath id="clip0_8_15229">
<rect width="53" height="48" fill="white" transform="translate(0.5)"/>
</clipPath>
</defs>
</svg>
