<?xml version="1.0" standalone="no"?>
<!DOCTYPE svg PUBLIC "-//W3C//DTD SVG 20010904//EN"
 "http://www.w3.org/TR/2001/REC-SVG-20010904/DTD/svg10.dtd">
<svg version="1.0" xmlns="http://www.w3.org/2000/svg"
 width="629.000000pt" height="629.000000pt" viewBox="0 0 629.000000 629.000000"
 preserveAspectRatio="xMidYMid meet">

<g transform="translate(0.000000,629.000000) scale(0.100000,-0.100000)"
fill="#000000" stroke="none">
<path d="M1684 3150 c0 -190 2 -267 3 -172 2 94 2 250 0 345 -1 94 -3 17 -3
-173z"/>
<path d="M4616 3314 c-16 -17 -26 -38 -26 -55 0 -19 -5 -29 -15 -29 -9 0 -15
-9 -15 -24 0 -13 7 -26 15 -30 11 -4 15 -21 15 -66 l0 -60 35 0 34 0 3 63 c3
54 5 62 23 62 18 0 20 -8 23 -62 l3 -63 34 0 35 0 0 90 0 90 -60 0 c-54 0 -60
2 -60 20 0 27 26 36 62 22 24 -9 30 -8 38 8 15 28 12 36 -15 48 -46 21 -99 15
-129 -14z"/>
<path d="M4824 3325 c-4 -8 -5 -69 -3 -136 4 -107 6 -122 24 -136 19 -13 88
-13 102 0 10 11 -8 45 -27 50 -18 5 -20 14 -20 121 l0 116 -35 0 c-22 0 -38
-6 -41 -15z"/>
<path d="M1950 3185 l0 -145 35 0 c35 0 35 0 35 44 0 70 20 74 60 10 33 -52
37 -54 78 -54 49 0 50 -5 -20 93 l-48 67 50 61 c27 33 50 62 50 65 0 2 -18 4
-39 4 -36 0 -43 -5 -78 -50 -21 -27 -41 -49 -45 -50 -5 0 -8 23 -8 50 l0 50
-35 0 -35 0 0 -145z"/>
<path d="M2670 3229 c0 -116 13 -149 68 -175 50 -23 107 -13 146 25 30 31 31
34 34 141 l4 110 -36 0 -36 0 0 -82 c0 -96 -14 -132 -52 -136 -43 -5 -58 28
-58 130 l0 88 -35 0 -35 0 0 -101z"/>
<path d="M3912 3188 l3 -143 35 0 c34 0 35 1 38 43 3 39 5 42 32 42 108 0 151
130 60 183 -19 12 -51 17 -99 17 l-72 0 3 -142z m138 42 c0 -27 -3 -30 -30
-30 -27 0 -30 3 -30 30 0 27 3 30 30 30 27 0 30 -3 30 -30z"/>
<path d="M920 3120 l0 -160 273 2 272 3 0 155 0 155 -272 3 -273 2 0 -160z
m88 113 c-2 -22 -9 -29 -30 -31 -25 -3 -28 0 -28 27 0 28 3 31 31 31 27 0 30
-3 27 -27z m72 -3 c0 -27 -3 -30 -30 -30 -27 0 -30 3 -30 30 0 27 3 30 30 30
27 0 30 -3 30 -30z m70 -1 c0 -27 -3 -30 -27 -27 -22 2 -29 9 -31 31 -3 24 0
27 27 27 28 0 31 -3 31 -31z m78 4 c-2 -22 -9 -29 -30 -31 -25 -3 -28 0 -28
27 0 28 3 31 31 31 27 0 30 -3 27 -27z m72 -3 c0 -27 -3 -30 -30 -30 -27 0
-30 3 -30 30 0 27 3 30 30 30 27 0 30 -3 30 -30z m70 -1 c0 -27 -3 -30 -27
-27 -22 2 -29 9 -31 31 -3 24 0 27 27 27 28 0 31 -3 31 -31z m78 4 c-2 -22 -9
-29 -30 -31 -25 -3 -28 0 -28 27 0 28 3 31 31 31 27 0 30 -3 27 -27z m-443
-73 c0 -20 -6 -26 -27 -28 -25 -3 -28 0 -28 28 0 28 3 31 28 28 21 -2 27 -8
27 -28z m75 0 c0 -27 -3 -30 -30 -30 -27 0 -30 3 -30 30 0 27 3 30 30 30 27 0
30 -3 30 -30z m70 0 c0 -27 -3 -30 -30 -30 -27 0 -30 3 -30 30 0 27 3 30 30
30 27 0 30 -3 30 -30z m78 3 c-2 -22 -9 -29 -30 -31 -25 -3 -28 0 -28 27 0 28
3 31 31 31 27 0 30 -3 27 -27z m72 -3 c0 -27 -3 -30 -30 -30 -27 0 -30 3 -30
30 0 27 3 30 30 30 27 0 30 -3 30 -30z m70 0 c0 -27 -3 -30 -30 -30 -27 0 -30
3 -30 30 0 27 3 30 30 30 27 0 30 -3 30 -30z m78 3 c-2 -22 -9 -29 -30 -31
-25 -3 -28 0 -28 27 0 28 3 31 31 31 27 0 30 -3 27 -27z m-440 -75 c3 -25 0
-28 -27 -28 -28 0 -31 3 -31 31 0 27 3 30 28 27 21 -2 28 -9 30 -30z m72 2 c0
-27 -3 -30 -30 -30 -27 0 -30 3 -30 30 0 27 3 30 30 30 27 0 30 -3 30 -30z
m70 0 c0 -27 -3 -30 -30 -30 -25 0 -30 4 -30 23 0 30 7 37 37 37 19 0 23 -5
23 -30z m78 -2 c3 -25 0 -28 -27 -28 -28 0 -31 3 -31 31 0 27 3 30 28 27 21
-2 28 -9 30 -30z m72 2 c0 -27 -3 -30 -30 -30 -27 0 -30 3 -30 30 0 27 3 30
30 30 27 0 30 -3 30 -30z m70 0 c0 -27 -3 -30 -30 -30 -25 0 -30 4 -30 23 0
30 7 37 37 37 19 0 23 -5 23 -30z m78 -2 c3 -25 0 -28 -27 -28 -28 0 -31 3
-31 31 0 27 3 30 28 27 21 -2 28 -9 30 -30z m-440 -75 c-2 -22 -9 -29 -30 -31
-25 -3 -28 0 -28 27 0 28 3 31 31 31 27 0 30 -3 27 -27z m362 -3 l0 -30 -175
0 -175 0 0 30 0 30 175 0 175 0 0 -30z m78 3 c-2 -22 -9 -29 -30 -31 -25 -3
-28 0 -28 27 0 28 3 31 31 31 27 0 30 -3 27 -27z"/>
<path d="M2262 3249 c-75 -22 -94 -127 -32 -181 22 -21 41 -28 71 -28 43 0 99
26 99 46 0 18 -47 26 -70 12 -14 -9 -25 -10 -36 -3 -33 21 -18 30 54 33 63 3
72 5 72 22 0 75 -76 123 -158 99z m76 -66 c2 -9 -8 -13 -32 -13 -34 0 -44 8
-29 24 11 11 56 2 61 -11z"/>
<path d="M2988 3245 c-30 -17 -46 -60 -32 -83 6 -8 30 -22 54 -32 44 -17 65
-40 36 -40 -8 0 -26 5 -40 11 -20 9 -29 9 -41 -1 -23 -19 -18 -30 22 -47 45
-18 112 -12 130 13 34 47 7 94 -64 109 -18 4 -33 11 -33 16 0 17 27 21 51 9
19 -11 25 -10 36 6 11 15 11 20 -1 32 -20 21 -87 25 -118 7z"/>
<path d="M3192 3245 c-28 -12 -31 -17 -23 -34 9 -17 15 -18 45 -9 39 12 66 5
66 -17 0 -11 -6 -14 -25 -9 -14 3 -39 1 -56 -6 -54 -23 -65 -76 -23 -109 32
-25 61 -27 92 -5 20 14 24 14 38 0 8 -9 27 -16 41 -16 25 0 26 1 19 53 -3 28
-6 64 -6 79 0 66 -94 107 -168 73z m88 -124 c0 -22 -37 -38 -52 -23 -17 17 -1
42 27 42 18 0 25 -5 25 -19z"/>
<path d="M3450 3247 c-14 -7 -33 -29 -44 -51 -34 -69 8 -148 79 -148 19 0 42
6 50 12 18 15 21 -1 5 -31 -12 -21 -59 -26 -91 -8 -17 8 -23 7 -34 -8 -46 -62
137 -77 185 -15 17 21 20 40 20 138 l0 114 -30 0 c-16 0 -30 -4 -30 -9 0 -6
-12 -3 -27 5 -34 17 -51 17 -83 1z m97 -85 c3 -14 1 -32 -4 -41 -23 -36 -73
-19 -73 25 0 52 64 66 77 16z"/>
<path d="M3710 3243 c-70 -36 -74 -143 -6 -184 17 -10 46 -19 64 -19 38 0 87
23 95 44 8 19 -45 31 -72 16 -15 -8 -27 -8 -41 0 -38 20 -20 30 55 30 l75 0 0
30 c0 73 -97 120 -170 83z m78 -45 c20 -20 14 -28 -23 -28 -38 0 -46 13 -17
29 22 13 26 13 40 -1z"/>
<path d="M4252 3244 c-12 -8 -22 -10 -22 -5 0 6 -16 11 -35 11 l-35 0 0 -100
0 -100 35 0 35 0 0 58 c0 63 11 82 47 82 20 0 23 5 23 35 0 39 -13 44 -48 19z"/>
<path d="M4380 3249 c-39 -15 -60 -49 -60 -97 0 -54 22 -88 66 -102 81 -27
154 20 154 97 0 57 -14 81 -55 99 -39 16 -69 17 -105 3z m74 -65 c9 -8 16 -24
16 -34 0 -19 -25 -50 -40 -50 -35 0 -53 71 -22 89 23 14 28 14 46 -5z"/>
<path d="M5024 3250 c-36 -14 -64 -59 -64 -101 0 -83 92 -133 169 -92 19 10
37 23 39 30 5 17 -39 26 -69 15 -16 -6 -31 -7 -42 -1 -34 20 -15 29 58 29 84
0 86 3 60 66 -21 51 -93 77 -151 54z m76 -60 c10 -18 8 -20 -25 -20 -49 0 -47
36 2 39 7 1 17 -8 23 -19z"/>
<path d="M5306 3239 c-21 -17 -26 -18 -26 -5 0 11 -9 16 -30 16 l-30 0 0 -100
0 -100 35 0 35 0 0 65 c0 64 0 64 33 73 27 7 33 13 35 40 4 38 -13 42 -52 11z"/>
<path d="M2461 3144 c32 -85 37 -109 27 -121 -6 -8 -20 -12 -30 -10 -15 4 -18
-1 -18 -29 0 -32 2 -34 34 -34 60 0 82 29 122 158 20 64 39 123 41 130 4 8 -6
12 -30 12 -34 0 -34 -1 -47 -60 -7 -33 -16 -63 -20 -65 -4 -3 -16 24 -25 60
l-18 65 -37 0 -38 0 39 -106z"/>
</g>
</svg>
